<?xml version="1.0" encoding="UTF-8" standalone="no"?>
<!DOCTYPE svg PUBLIC "-//W3C//DTD SVG 1.1//EN" "http://www.w3.org/Graphics/SVG/1.1/DTD/svg11.dtd">
<svg width="100%" height="100%" viewBox="0 0 934 341" version="1.1" xmlns="http://www.w3.org/2000/svg" xmlns:xlink="http://www.w3.org/1999/xlink" xml:space="preserve" style="fill-rule:evenodd;clip-rule:evenodd;stroke-linejoin:round;stroke-miterlimit:1.41421;">
    <g transform="matrix(1,0,0,1,-502.258,-167.764)">
        <g transform="matrix(0.530711,0,0,0.530711,324.324,-458.465)">
            <g transform="matrix(7.74528,0,0,7.74528,-5380.92,-10794.5)">
                <clipPath id="_clip1">
                    <rect x="803.321" y="1546.04" width="112.09" height="42.223"/>
                </clipPath>
                <g clip-path="url(#_clip1)">
                    <g transform="matrix(1.30258,0,0,1.30258,-166.487,-436.951)">
                        <path d="M755.599,1543.96C755.599,1544.51 755.899,1544.76 756.449,1544.76L756.999,1544.76C758.399,1544.76 758.749,1547.06 758.749,1553.71C758.749,1560.71 759.849,1563.01 764.299,1563.01L765.749,1563.01C766.349,1563.01 766.599,1562.76 766.599,1562.16L766.599,1560.06C766.599,1559.46 766.349,1559.21 765.749,1559.21L765.099,1559.21C763.549,1559.21 763.099,1557.46 763.099,1552.86C763.099,1545.76 762.299,1543.41 759.949,1542.66C762.299,1541.96 763.099,1539.61 763.099,1532.51C763.099,1527.91 763.549,1526.16 765.099,1526.16L765.749,1526.16C766.349,1526.16 766.599,1525.91 766.599,1525.31L766.599,1523.21C766.599,1522.61 766.349,1522.36 765.749,1522.36L764.299,1522.36C759.849,1522.36 758.749,1524.66 758.749,1531.66C758.749,1538.31 758.399,1540.61 756.999,1540.61L756.449,1540.61C755.899,1540.61 755.599,1540.86 755.599,1541.41L755.599,1543.96Z" style="fill:rgb(233,46,133);fill-opacity:0;fill-rule:nonzero;"/>
                        <path d="M772.924,1541.04C776.149,1541.04 777.624,1538.97 777.624,1534.04C777.624,1529.09 776.149,1527.04 772.924,1527.04C769.699,1527.04 768.249,1529.09 768.249,1534.04C768.249,1538.97 769.699,1541.04 772.924,1541.04ZM772.924,1538.57C771.624,1538.57 771.124,1537.37 771.124,1534.04C771.124,1530.72 771.624,1529.52 772.924,1529.52C774.249,1529.52 774.724,1530.72 774.724,1534.04C774.724,1537.37 774.249,1538.57 772.924,1538.57Z" style="fill:rgb(233,46,133);fill-opacity:0;fill-rule:nonzero;"/>
                        <path d="M785.874,1549.71C786.34,1549.71 786.574,1549.51 786.574,1549.04L786.574,1547.14C786.574,1546.67 786.34,1546.47 785.874,1546.47L780.007,1546.47C779.54,1546.47 779.34,1546.67 779.34,1547.14L779.34,1549.04C779.34,1549.51 779.54,1549.71 780.007,1549.71L785.874,1549.71Z" style="fill:rgb(233,46,133);fill-rule:nonzero;"/>
                        <path d="M792.965,1541.04C796.19,1541.04 797.665,1538.97 797.665,1534.04C797.665,1529.09 796.19,1527.04 792.965,1527.04C789.74,1527.04 788.29,1529.09 788.29,1534.04C788.29,1538.97 789.74,1541.04 792.965,1541.04ZM792.965,1538.57C791.665,1538.57 791.165,1537.37 791.165,1534.04C791.165,1530.72 791.665,1529.52 792.965,1529.52C794.29,1529.52 794.765,1530.72 794.765,1534.04C794.765,1537.37 794.29,1538.57 792.965,1538.57Z" style="fill:rgb(233,46,133);fill-rule:nonzero;"/>
                        <path d="M810.315,1541.41C810.315,1540.86 810.015,1540.61 809.465,1540.61L808.915,1540.61C807.515,1540.61 807.165,1538.31 807.165,1531.66C807.165,1524.66 806.065,1522.36 801.615,1522.36L800.165,1522.36C799.565,1522.36 799.315,1522.61 799.315,1523.21L799.315,1525.31C799.315,1525.91 799.565,1526.16 800.165,1526.16L800.815,1526.16C802.415,1526.16 802.815,1527.91 802.815,1532.51C802.815,1539.61 803.615,1541.96 805.965,1542.66C803.615,1543.41 802.815,1545.76 802.815,1552.86C802.815,1557.46 802.415,1559.21 800.815,1559.21L800.165,1559.21C799.565,1559.21 799.315,1559.46 799.315,1560.06L799.315,1562.16C799.315,1562.76 799.565,1563.01 800.165,1563.01L801.615,1563.01C806.065,1563.01 807.165,1560.71 807.165,1553.71C807.165,1547.06 807.515,1544.76 808.915,1544.76L809.465,1544.76C810.015,1544.76 810.315,1544.51 810.315,1543.96L810.315,1541.41Z" style="fill:rgb(233,46,133);fill-rule:nonzero;"/>
                    </g>
                    <g transform="matrix(1.30258,0,0,1.30258,-166.487,-436.951)">
                        <path d="M755.599,1543.96C755.599,1544.51 755.899,1544.76 756.449,1544.76L756.999,1544.76C758.399,1544.76 758.749,1547.06 758.749,1553.71C758.749,1560.71 759.849,1563.01 764.299,1563.01L765.749,1563.01C766.349,1563.01 766.599,1562.76 766.599,1562.16L766.599,1560.06C766.599,1559.46 766.349,1559.21 765.749,1559.21L765.099,1559.21C763.549,1559.21 763.099,1557.46 763.099,1552.86C763.099,1545.76 762.299,1543.41 759.949,1542.66C762.299,1541.96 763.099,1539.61 763.099,1532.51C763.099,1527.91 763.549,1526.16 765.099,1526.16L765.749,1526.16C766.349,1526.16 766.599,1525.91 766.599,1525.31L766.599,1523.21C766.599,1522.61 766.349,1522.36 765.749,1522.36L764.299,1522.36C759.849,1522.36 758.749,1524.66 758.749,1531.66C758.749,1538.31 758.399,1540.61 756.999,1540.61L756.449,1540.61C755.899,1540.61 755.599,1540.86 755.599,1541.41L755.599,1543.96Z" style="fill:rgb(174,215,74);fill-rule:nonzero;"/>
                        <path d="M772.924,1541.04C776.149,1541.04 777.624,1538.97 777.624,1534.04C777.624,1529.09 776.149,1527.04 772.924,1527.04C769.699,1527.04 768.249,1529.09 768.249,1534.04C768.249,1538.97 769.699,1541.04 772.924,1541.04ZM772.924,1538.57C771.624,1538.57 771.124,1537.37 771.124,1534.04C771.124,1530.72 771.624,1529.52 772.924,1529.52C774.249,1529.52 774.724,1530.72 774.724,1534.04C774.724,1537.37 774.249,1538.57 772.924,1538.57Z" style="fill:rgb(174,215,74);fill-rule:nonzero;"/>
                    </g>
                </g>
            </g>
            <g transform="matrix(7.92381,0,0,7.92381,-5440.47,-11383.3)">
                <path d="M740.16,1644.75C739.41,1644.75 739.01,1645.14 739.01,1645.85L739.01,1648.75C739.01,1649.5 739.41,1649.89 740.16,1649.89L743.31,1649.89L743.31,1660.69C742.81,1660.89 742.11,1661 741.41,1661C736.71,1661 735.11,1658.44 735.11,1648.25C735.11,1638.35 736.51,1635.85 742.31,1635.85C744.16,1635.85 745.66,1636.19 746.46,1636.35C747.31,1636.55 747.91,1636.35 747.91,1635.44L747.91,1632.3C747.91,1631.44 747.56,1631.14 746.81,1630.89C745.66,1630.55 743.86,1630.3 741.66,1630.3C732.41,1630.3 728.91,1634.19 728.91,1648.25C728.91,1662.5 732.56,1666.39 740.86,1666.39C743.81,1666.39 746.61,1665.85 747.81,1665.14C748.56,1664.69 748.91,1664.1 748.91,1663.3L748.91,1645.85C748.91,1645.14 748.56,1644.75 747.81,1644.75L740.16,1644.75Z" style="fill:rgb(174,215,74);fill-rule:nonzero;"/>
                <path d="M759.36,1648.94L759.36,1636.3L761.76,1636.3C765.71,1636.3 766.76,1637.8 766.76,1642.69C766.76,1647.39 765.76,1648.94 761.86,1648.94L759.36,1648.94ZM754.41,1630.69C753.66,1630.69 753.26,1631.1 753.26,1631.85L753.26,1664.85C753.26,1665.55 753.66,1665.94 754.41,1665.94L758.26,1665.94C759.01,1665.94 759.36,1665.55 759.36,1664.85L759.36,1654.35L761.66,1654.35L766.26,1665C766.56,1665.75 766.86,1665.94 767.76,1665.94L771.81,1665.94C772.71,1665.94 772.91,1665.35 772.51,1664.55L767.31,1653.39C770.96,1652.25 772.96,1649.14 772.96,1642.69C772.96,1633.75 769.96,1630.69 761.81,1630.69L754.41,1630.69Z" style="fill:rgb(174,215,74);fill-rule:nonzero;"/>
                <path d="M787.11,1630.3C780.01,1630.3 776.31,1634.19 776.31,1648.35C776.31,1662.5 780.01,1666.39 787.11,1666.39C794.26,1666.39 797.96,1662.5 797.96,1648.35C797.96,1634.19 794.26,1630.3 787.11,1630.3ZM787.11,1660.89C783.86,1660.89 782.51,1658.39 782.51,1648.35C782.51,1638.25 783.86,1635.75 787.11,1635.75C790.36,1635.75 791.76,1638.25 791.76,1648.35C791.76,1658.39 790.36,1660.89 787.11,1660.89Z" style="fill:rgb(174,215,74);fill-rule:nonzero;"/>
                <path d="M817.96,1657.05C817.96,1651.64 815.41,1649.1 811.46,1646C809.26,1644.3 807.16,1642.35 807.16,1639.5C807.16,1637.05 808.16,1635.8 811.21,1635.8C812.81,1635.8 814.46,1636.1 815.11,1636.25C816.01,1636.44 816.51,1636.19 816.51,1635.39L816.51,1632.14C816.51,1631.3 816.21,1631 815.41,1630.8C814.31,1630.55 812.36,1630.3 810.46,1630.3C803.36,1630.3 800.86,1633.3 800.86,1639.35C800.86,1645.05 803.76,1647.89 806.91,1650.3C810.31,1652.8 811.66,1654.19 811.66,1656.85C811.66,1659.6 810.01,1660.89 806.76,1660.89C805.11,1660.89 803.21,1660.6 802.26,1660.3C801.36,1660 800.86,1660.39 800.86,1661.14L800.86,1664.35C800.86,1665.19 801.21,1665.5 802.06,1665.75C803.31,1666.14 805.91,1666.39 808.11,1666.39C813.91,1666.39 817.96,1663.5 817.96,1657.05Z" style="fill:rgb(174,215,74);fill-rule:nonzero;"/>
                <path d="M837.76,1657.05C837.76,1651.64 835.21,1649.1 831.26,1646C829.06,1644.3 826.96,1642.35 826.96,1639.5C826.96,1637.05 827.96,1635.8 831.01,1635.8C832.61,1635.8 834.26,1636.1 834.91,1636.25C835.81,1636.44 836.31,1636.19 836.31,1635.39L836.31,1632.14C836.31,1631.3 836.01,1631 835.21,1630.8C834.11,1630.55 832.16,1630.3 830.26,1630.3C823.16,1630.3 820.66,1633.3 820.66,1639.35C820.66,1645.05 823.56,1647.89 826.71,1650.3C830.11,1652.8 831.46,1654.19 831.46,1656.85C831.46,1659.6 829.81,1660.89 826.56,1660.89C824.91,1660.89 823.01,1660.6 822.06,1660.3C821.16,1660 820.66,1660.39 820.66,1661.14L820.66,1664.35C820.66,1665.19 821.01,1665.5 821.86,1665.75C823.11,1666.14 825.71,1666.39 827.91,1666.39C833.71,1666.39 837.76,1663.5 837.76,1657.05Z" style="fill:rgb(174,215,74);fill-rule:nonzero;"/>
            </g>
            <g transform="matrix(7.92381,0,0,7.92381,-6579.16,-11031)">
                <path d="M991.47,1604.48L991.47,1591.83L993.87,1591.83C997.82,1591.83 998.87,1593.33 998.87,1598.23C998.87,1602.93 997.87,1604.48 993.97,1604.48L991.47,1604.48ZM986.52,1586.23C985.77,1586.23 985.37,1586.63 985.37,1587.38L985.37,1620.38C985.37,1621.08 985.77,1621.48 986.52,1621.48L990.37,1621.48C991.12,1621.48 991.47,1621.08 991.47,1620.38L991.47,1609.88L993.77,1609.88L998.37,1620.53C998.67,1621.28 998.97,1621.48 999.87,1621.48L1003.92,1621.48C1004.82,1621.48 1005.02,1620.88 1004.62,1620.08L999.42,1608.93C1003.07,1607.78 1005.07,1604.68 1005.07,1598.23C1005.07,1589.28 1002.07,1586.23 993.92,1586.23L986.52,1586.23Z" style="fill:rgb(233,46,133);fill-rule:nonzero;"/>
                <path d="M1019.22,1585.83C1012.12,1585.83 1008.42,1589.73 1008.42,1603.88C1008.42,1618.03 1012.12,1621.93 1019.22,1621.93C1026.37,1621.93 1030.07,1618.03 1030.07,1603.88C1030.07,1589.73 1026.37,1585.83 1019.22,1585.83ZM1019.22,1616.43C1015.97,1616.43 1014.62,1613.93 1014.62,1603.88C1014.62,1593.78 1015.97,1591.28 1019.22,1591.28C1022.47,1591.28 1023.87,1593.78 1023.87,1603.88C1023.87,1613.93 1022.47,1616.43 1019.22,1616.43Z" style="fill:rgb(233,46,133);fill-rule:nonzero;"/>
                <path d="M1046.52,1616.33C1041.47,1616.33 1039.87,1613.93 1039.87,1603.78C1039.87,1593.83 1041.42,1591.38 1046.37,1591.38C1047.62,1591.38 1049.02,1591.63 1049.67,1591.78C1050.52,1591.93 1050.97,1591.58 1050.97,1590.83L1050.97,1587.68C1050.97,1586.83 1050.62,1586.53 1049.82,1586.38C1048.82,1586.13 1047.02,1585.83 1045.32,1585.83C1037.07,1585.83 1033.67,1589.73 1033.67,1603.78C1033.67,1618.03 1037.12,1621.93 1045.47,1621.93C1047.32,1621.93 1049.12,1621.63 1050.12,1621.33C1050.87,1621.13 1051.22,1620.83 1051.22,1619.98L1051.22,1616.88C1051.22,1616.08 1050.77,1615.78 1049.92,1615.93C1049.27,1616.08 1047.87,1616.33 1046.52,1616.33Z" style="fill:rgb(233,46,133);fill-rule:nonzero;"/>
                <path d="M1061.12,1599.73L1061.12,1587.38C1061.12,1586.63 1060.77,1586.23 1060.02,1586.23L1056.17,1586.23C1055.42,1586.23 1055.02,1586.63 1055.02,1587.38L1055.02,1620.38C1055.02,1621.08 1055.42,1621.48 1056.17,1621.48L1060.02,1621.48C1060.77,1621.48 1061.12,1621.08 1061.12,1620.38L1061.12,1605.53L1068.67,1620.48C1068.92,1621.03 1069.32,1621.48 1070.12,1621.48L1074.37,1621.48C1075.27,1621.48 1075.47,1620.83 1075.12,1620.08L1066.02,1602.38L1074.77,1587.63C1075.17,1586.93 1074.92,1586.23 1074.02,1586.23L1069.97,1586.23C1069.22,1586.23 1068.87,1586.63 1068.52,1587.23L1061.12,1599.73Z" style="fill:rgb(233,46,133);fill-rule:nonzero;"/>
                <path d="M1094.52,1612.58C1094.52,1607.18 1091.97,1604.63 1088.02,1601.53C1085.82,1599.83 1083.72,1597.88 1083.72,1595.03C1083.72,1592.58 1084.72,1591.33 1087.77,1591.33C1089.37,1591.33 1091.02,1591.63 1091.67,1591.78C1092.57,1591.98 1093.07,1591.73 1093.07,1590.93L1093.07,1587.68C1093.07,1586.83 1092.77,1586.53 1091.97,1586.33C1090.87,1586.08 1088.92,1585.83 1087.02,1585.83C1079.92,1585.83 1077.42,1588.83 1077.42,1594.88C1077.42,1600.58 1080.32,1603.43 1083.47,1605.83C1086.87,1608.33 1088.22,1609.73 1088.22,1612.38C1088.22,1615.13 1086.57,1616.43 1083.32,1616.43C1081.67,1616.43 1079.77,1616.13 1078.82,1615.83C1077.92,1615.53 1077.42,1615.93 1077.42,1616.68L1077.42,1619.88C1077.42,1620.73 1077.77,1621.03 1078.62,1621.28C1079.87,1621.68 1082.47,1621.93 1084.67,1621.93C1090.47,1621.93 1094.52,1619.03 1094.52,1612.58Z" style="fill:rgb(233,46,133);fill-rule:nonzero;"/>
            </g>
        </g>
    </g>
</svg>
