<?xml version="1.0" encoding="UTF-8" standalone="no"?>
<!DOCTYPE svg PUBLIC "-//W3C//DTD SVG 1.1//EN" "http://www.w3.org/Graphics/SVG/1.1/DTD/svg11.dtd">
<svg width="100%" height="100%" viewBox="0 0 970 968" version="1.1" xmlns="http://www.w3.org/2000/svg" xmlns:xlink="http://www.w3.org/1999/xlink" xml:space="preserve" style="fill-rule:evenodd;clip-rule:evenodd;stroke-linejoin:round;stroke-miterlimit:1.41421;">
    <g transform="matrix(1,0,0,1,-65,-71.5)">
        <g>
            <g transform="matrix(1,0,0,1,-65,45.5)">
                <path d="M131,986C131,984 133,980 134,977C136,974 137,971 137,971C137,969 140,963 142,960C143,959 144,957 144,956C144,955 145,953 147,951C148,950 149,948 149,947C149,947 150,945 152,944C153,943 154,941 154,940C154,940 155,938 156,938C157,937 158,935 158,935C158,934 162,929 167,924C172,919 176,914 176,914C176,912 178,910 192,896C200,889 208,882 210,880C212,879 215,876 216,875C217,873 219,872 219,872C220,872 223,870 226,868C229,866 232,864 232,864C233,864 234,863 235,863C236,862 237,861 238,861C239,861 241,860 243,859C244,857 247,856 248,855L251,855L251,854L251,853L252,853C253,853 257,852 267,847C270,845 274,844 276,843L280,843L280,842L280,841L286,841L286,840L286,839L290,838C293,837 297,836 301,834C305,833 309,832 311,832L313.094,832.787C315.672,834.485 315.193,834.893 314,835L314,839L314,835C316.983,823.451 317.335,802.28 319,786C319.509,781.026 320,775 321,775C321,774 323,771 324,768C325,765 326,761 327,760C328,759 329,757 329,756C329,755 329,754 332,749C333,748 335,743 337,739C339,735 342,730 344,729C345,728 346,726 346,725C346,723 373,697 375,697C376,697 378,695 381,693C386,689 402,680 405,680L406,680L406,668C406.036,664.611 406.645,661.653 405,657C404.713,656.486 403.758,651.399 403.541,649.909C403.448,647.846 403.989,644.947 403,644C402.5,643.404 402.256,643.212 402,643C401.117,642.02 400.083,641.054 400,640C400,638 399,636 396,633C394,630 392,628 392,627C392,626 390,623 388,621C386,618 384,616 384,615C384,614 382,612 380,609C378,606 376,604 376,603C376,602 374,600 373,597C371,595 369,591 368,588C367,586 366,584 365,583C363,581 361,577 360,574C359,573 358,570 357,568C356,566 355,563 355,562C355,561 354,560 354,559C353,558 352,556 352,554C351,552 351,549 350,548C350,546 349,544 349,544C348,543 347,540 346,535C346,531 344,523 343,519C343,514 342,504 341,498C341,486 341,485 338,483C337,482 335,480 333,479C332,479 330,477 329,475C327,472 327,472 328,406C328,335 328,337 333,328C336,324 336,324 336,275C337,246 337,223 338,220C339,213 341,203 342,196L344,192L345,187C346,184 347,182 347,181C348,181 348,180 348,179C348,178 349,176 350,174C351,171 352,169 352,168C352,168 353,166 353,164C354,163 355,161 355,160C355,159 356,157 357,156C358,154 359,151 360,150C362,145 363,142 366,139C367,138 368,136 368,135C368,135 369,134 369,133C370,132 372,130 373,128C374,125 377,121 379,119C382,115 386,108 386,106C386,106 387,104 389,103C391,102 392,100 392,100C392,98 432,59 433,59C434,59 447,50 448,49L448,48L450,48C452,48 458,45 459,44C459,43 460,43 461,43C463,43 465,42 467,40C470,38 471,37 480,37L490,37L490,36L490,35L496,35C502,35 503,35 506,33C508,30 509,30 514,30C517,30 520,29 521,29C522,28 525,27 530,27C535,27 544,27 552,27L565,26L565,28L571,28C582,29 587,30 587,31C588,32 589,32 590,32C591,32 592,33 593,34C593,34 595,35 597,35C598,35 599,35 600,36L600,37L601,36L602,36L602,38L606,39C610,39 618,43 619,44C619,45 620,45 621,45C622,45 623,46 624,47C626,47 627,48 628,48C628,48 631,49 633,50C636,51 639,52 641,53C643,54 646,55 647,56C648,57 649,58 649,58C650,58 652,59 653,60L655,63L656,62L658,62L665,69C668,73 673,77 675,78C679,80 704,102 704,104C704,105 705,107 706,108C707,108 708,110 708,110C708,111 711,114 714,117C717,121 720,124 720,126C721,127 724,131 726,134C730,137 732,141 734,145C735,147 737,151 739,154C744,159 748,168 748,173L748,177L749,175L750,174L750,176C750,177 750,178 751,179C752,179 752,180 752,181C752,183 753,184 753,185C754,186 755,189 756,192C756,196 757,199 758,199C759,200 759,203 759,208L759,216L763,223C763,227 764,232 764,235L764,240L766,242C766,244 767,245 767,246C769,246 768,295 766,296C766,296 765,306 765,317C764,336 764,337 762,339L760,341L766,341C772,342 772,342 778,347C782,352 783,353 783,356L783,360L785,372C785,382 785,384 782,390C781,393 780,396 779,398C779,399 778,400 778,400C778,400 777,402 776,404C775,407 774,411 774,422C773,430 769,447 768,452C768.96,455 768.596,463.064 767.605,465.666C767.605,467.666 760,483 758,486C757,487 756,489 756,490C756,492 746,502 744,502C743,502 742,502 742,503C741,504 737,504 731,504L721,504L721,502L720,501L717,501C716.878,500.644 709.653,505.619 710,512C709.766,515.735 710.058,518.065 709,524C707.946,527.37 707.026,526.952 706,536L706,539C706,540 706,542 705,543C704,544 704,548 703,552C703,556 702,560 702,560C701,561 701,577 701,608C701,650 701,655 702,656C703,658 706,658 712,658L720,658L724,656C731,655 735,654 736,653C737,652 763,649 770,649C773,649 777,650 778,651C780,651 784,654 784,654L787,654C791,654 796,656 797,657C797,657 804,658 812,658C823,658 826,659 829,660C831,662 834,663 834,665L834,668L847,667C863,667 863,667 868,670C871,672 874,675 875,676L877,679L876,679L878,681C879,682 881,686 882,688C884,694 885,694 898,701C904,704 910,707 911,708C913,708 915,711 916,713L919,716L919,717L918,717L919,719C920,719 922,720 925,720C928,720 930,721 932,722C937,726 945,732 946,733C946,734 948,736 950,739C953,742 956,746 958,748C962,753 965,756 971,757C976,758 989,763 991,764C992,765 994,766 996,768C998,769 1004,773 1009,777C1013,781 1017,784 1018,784C1019,784 1032,799 1032,800C1032,800 1033,803 1035,806C1037,808 1038,811 1038,812L1038,814L1039,814C1040,814 1041,817 1041,821C1042,824 1043,828 1043,829C1044,829 1045,831 1045,831L1045,832L1047,832C1048,832 1049,833 1050,833C1051,834 1053,836 1054,836C1059,839 1062,841 1066,843C1067,844 1069,845 1070,846L1072,846L1072,848L1073,848C1074,848 1076,849 1077,850C1080,853 1100,855 1100,923L1099,993L605,993L130,994L131,986Z" style="fill:rgb(43,49,41);fill-rule:nonzero;"/>
            </g>
            <g transform="matrix(1,0,0,1,-65,45.5)">
                <path d="M312,988C311,988 311,977 311,963C310,950 309,936 309,933C308,924 308,898 309,875C310,858 312.97,846.333 315.97,836.333C318.189,830.022 319.988,815.368 321,790C322,780 325,772 330,766C335,759 349,746 352,745C358,744 363,747 363,752C363,753 362,755 357,758C347,766 344,769 341,775C335,787 335,789 334,801C333,814 332,814 337,841C340,856 340,857 340,892C339,911 339,932 338,937C337,950 337,967 338,978C339,986 339,987 338,988C336,989 312,989 312,988ZM345,988C344,987 343,984 343,980C342,969 342,947 343,944C345,938 352,940 358,947C361,951 388,965 400,969C415,974 439,975 466,972C474,972 487,970 496,970C519,967 524,967 551,961C564,958 586,953 599,951C611,949 626,946 632,944C637,943 643,942 645,942L648,943L647,948C647,954 642,982 641,985C640,986 638,987 633,987C619,988 347,989 345,988ZM649,988C648,987 648,985 649,974C650,960 652,943 654,934C655,931 655,924 656,919C656,913 657,905 657,901C658,896 658,884 659,873C660,862 661,850 661,846C662,842 663,836 664,831C667,812 667,808 669,798C671,790 673,784 677,776C680,770 683,765 683,764L678,764C671,764 619,782 578,799C558,807 558,807 541,808C531,809 515,810 506,810C478,812 436,812 424,810C409,807 405,805 399,798C394,794 386,788 379,783C373,781 373,774 378,764C380,758 380,757 380,750C379,745 379,740 379,739C379,734 384,726 388,721C393,717 405,709 407,709C409,709 411,714 410,716L410,718L408,718L407,718L406,721C406,723 406,724 410,746C416,774 420,785 427,794C428,796 430,797 430,797L431,797L428,790C422,774 417,746 417,728C417,722 417,715 416,713C415,711 415,702 414,693L414,677L426,677C431,678 450,688 454,692C458,695 473,702 481,703C497,707 505,707 522,707C561,705 578,703 593,698C598,696 608,693 614,691L626,688L626,687L626,686L621,686C618,686 615,686 615,685L614,685L616,682C617,680 620,677 624,675C634,668 647,659 655,653C660,649 665,647 673,646C677,646 681,645 684,643C688,641 691,640 692,642C693,644 696,665 697,684C698,699 698,730 696,736C696,737 694,740 691,741C685,746 677,754 677,755L677,756L678,756C678,756 684,752 689,748C691,746 694,743 695,741C697,738 699,735 701,734C703,731 704,729 706,718C707,709 707,700 707,690L707,676L709,676C711,677 712,677 714,678L716,678L717,675C719,671 727,664 734,661C750,655 768,654 786,658C792,660 802,661 810,662C817,662 824,664 827,665L831,666L831,667C831,668 829,669 827,669C826,669 820,672 814,675C808,678 800,681 797,682C788,685 763,697 751,706C745,709 736,716 730,722C724,728 717,734 714,736C706,740 698,747 694,752L691,756L691,757L692,757L701,752C705,749 711,746 713,745C717,745 721,746 724,748C725,750 725,750 724,756C723,760 720,767 718,772C712,784 710,787 709,794C708,797 706,804 704,810C700,825 699,828 697,849C695,866 695,881 692,961C692,982 691,987 690,988C688,989 651,989 649,988ZM506,781C512,775 514,774 524,770C531,767 534,765 534,763C534,762 538,759 541,755C545,752 549,748 550,746C551,744 553,742 554,742C555,741 556,740 556,739L556,738L547,738C537,739 527,741 519,744C513,747 510,749 500,756C497,758 492,761 489,763C486,765 483,766 483,767C482,768 480,768 479,768C477,768 475,769 474,769L474,770L479,775C482,778 486,780 488,781C491,782 494,783 495,784C499,786 503,785 506,781ZM710,988L702,988L701,959C701,937 701,928 702,926C703,923 705,921 708,919C716,913 722,910 729,907C732,905 736,903 737,902C738,901 751,894 766,887C780,880 792,873 793,873C793,873 797,870 802,868C807,865 818,859 828,854C848,842 892,820 901,816C921,808 949,805 967,807C982,809 1003,814 1014,820C1017,822 1022,823 1023,824C1031,827 1037,831 1039,834C1041,837 1043,839 1045,840L1048,841L1047,842C1047,843 1046,845 1045,845C1044,846 1043,847 1042,848L1041,850L1044,852C1047,856 1047,858 1044,859L1042,860L1042,863C1043,868 1044,872 1045,884L1045,894L1044,894C1044,894 1043,893 1041,892L1039,890L1037,893C1035,896 1035,897 1036,899C1038,902 1036,904 1031,905L1026,906L1026,908L1030,908C1033,908 1035,909 1036,909L1037,911L1036,912C1034,913 1022,918 1021,918C1019,918 1012,926 1010,929C1010,931 1008,932 1008,932C1007,932 1005,934 1003,936C999,941 988,954 984,959C982,962 980,965 978,967C976,970 975,972 975,972C975,973 974,974 973,976C972,977 969,980 968,983C966,987 965,988 960,988C954,989 840,989 824,988C812,988 812,988 809,983C808,980 804,973 801,969C798,964 792,953 788,946C779,928 776,924 774,922L772,920L772,922C772,923 774,928 776,934C778,939 780,947 782,951C784,959 789,969 791,971C793,972 801,985 801,987L801,988L778,988C756,989 725,989 710,988ZM253,988C253,987 254,983 256,977C259,966 262,960 264,959L266,958L269,960C272,962 272,963 272,965C271,967 272,969 273,971L275,974L277,973L278,973L278,978L277,978L275,977L275,978L279,982L281,981L283,980L285,982C286,983 287,985 287,986L287,987L285,987C284,988 277,988 268,988L253,988ZM993,987C993,987 998,977 1000,974C1001,973 1003,968 1005,964C1009,955 1015,945 1018,942C1019,941 1022,940 1024,940L1027,940L1027,942C1027,944 1028,945 1029,946C1030,948 1031,949 1030,951C1030,953 1030,954 1032,955C1034,957 1034,958 1034,960C1033,962 1034,964 1034,965C1035,965 1035,970 1034,977L1034,988L1013,988L993,988L993,987ZM385,953C377,951 370,948 367,945C365,943 365,942 365,934C366,919 365,912 365,896C364,882 364,881 366,879C370,875 384,877 399,883C406,886 420,893 423,895C427,898 447,905 454,906C460,908 466,909 495,912C503,912 514,914 519,915C536,918 547,921 552,922C555,923 559,924 562,925L568,925L568,923C568,922 567,921 566,920L565,918L566,917C568,916 568,916 588,913C598,911 608,909 612,908C616,907 623,905 629,903C637,900 640,900 645,900C651,901 652,901 653,904C654,907 652,924 650,926C649,927 646,929 642,930C630,932 615,935 607,936C587,940 575,942 564,944C557,946 547,948 541,948C535,949 529,950 528,951C527,951 503,952 476,952C448,952 417,953 407,953C396,954 387,954 385,953ZM536,904C534,904 527,903 521,902C515,901 506,900 502,899C497,898 487,897 481,896C474,895 462,894 455,893C446,893 440,892 438,891L434,889L436,887C437,885 438,884 438,883C438,882 442,879 448,876C452,874 465,872 489,871C517,870 528,868 537,865C543,863 552,861 572,857C577,856 582,854 583,854C584,853 586,852 589,851C591,851 599,848 607,845C624,839 650,832 653,832L656,832L656,834C656,835 656,837 655,838C654,841 650,842 636,844C632,845 625,846 620,848C616,849 611,850 610,850C609,850 605,851 601,853C598,854 592,856 590,857C588,857 585,858 584,859C582,860 572,863 533,877C526,879 521,881 521,881L522,882C524,883 538,882 552,879C573,874 587,870 614,859C631,852 644,849 651,849L656,850L655,861C655,870 655,873 653,876C652,880 651,880 638,884C624,888 605,893 600,895C578,902 553,906 536,904ZM702,898C699,895 704,879 710,873C719,865 738,855 786,834C846,806 881,794 915,787C935,783 949,782 976,781C999,781 999,781 1001,783C1002,786 1002,787 1001,790L1000,794L995,793C993,793 991,793 990,793C990,793 988,793 985,793C983,794 977,794 973,794C969,794 958,795 948,796C924,799 902,805 876,817C870,820 858,826 851,829C843,833 833,838 827,841C802,855 730,891 715,897C708,900 704,901 702,898ZM394,864C390,860 394,857 410,852C415,851 421,849 423,848C429,846 448,842 467,839C474,838 480,837 481,837C484,836 494,838 498,841C502,844 503,845 501,848L500,850L503,851C504,851 506,851 507,852L508,852L507,854L507,855L503,854C501,854 491,854 481,854C463,854 443,856 423,860C419,861 413,862 410,863C407,864 403,865 401,865C396,866 396,866 394,864ZM348,854C344,846 340,816 340,800C341,785 341,785 349,783C353,782 356,782 357,783C358,784 361,784 364,784C369,784 369,784 373,788C376,791 379,794 383,795C386,796 389,798 390,799C391,799 392,800 393,800L394,800L394,802L391,801L388,801L389,802C390,804 399,808 413,814C419,816 424,818 425,819L426,819L424,821C423,822 422,823 421,823C420,823 419,823 419,824L418,825L421,825L423,826L423,829L421,829L418,830L418,832L419,832C420,832 421,833 422,833L424,835L424,837C423,840 417,842 395,847C392,848 384,850 378,852C371,854 362,855 357,856C350,856 349,856 348,854ZM707,849C706,847 708,829 710,823C711,821 713,814 714,810C715,805 716,801 717,800C718,799 722,796 727,794C733,791 738,787 745,780C756,770 760,767 769,760C773,758 778,755 781,753C787,748 801,741 804,741L806,741L806,744C806,747 803,751 796,755L792,758L792,759L793,759L796,757C798,756 801,754 802,753C807,750 819,741 826,735C835,727 848,720 856,719L863,719L863,720C863,722 859,725 851,729C846,731 842,733 842,734L842,736L850,737C855,738 863,739 869,740C879,740 880,740 889,737C897,734 901,732 915,724C919,722 921,723 929,726C938,731 946,739 953,753C958,762 958,765 954,767C952,768 944,769 936,771C888,778 846,791 797,814C787,819 769,826 757,832C744,837 732,842 731,842C721,847 712,851 710,851L708,851L707,849ZM748,794L750,792L746,793C744,794 743,795 743,796L744,796C745,796 747,795 748,794ZM771,775L776,771L776,770L775,770L772,772C770,773 768,775 767,776C765,777 764,779 764,779L764,780L765,780C765,780 768,778 771,775ZM470,672C461,671 444,668 440,666C435,664 428,659 423,653C418,647 417,644 412,630L411,625L410,625L409,625L409,629L408,631L406,631C404,631 395,623 395,621C395,620 394,619 393,618C393,617 391,615 389,612C388,610 385,605 384,603C380,598 375,591 371,583C361,564 356,552 353,539C353,534 351,530 351,529C348,523 345,488 347,481C348,477 348,473 347,460C347,452 346,426 345,403C345,368 345,361 346,356C348,351 349,331 349,283C349,250 349,248 353,227C354,224 354,219 354,216C354,211 356,201 362,184C371,157 386,130 402,114C420,96 440,85 447,90L448,91L446,93L444,96C444,97 449,96 454,96C459,95 472,95 482,95C501,95 504,95 507,99C508,101 519,101 527,99C554,91 559,90 601,90C628,90 633,90 640,91C652,94 656,96 660,104C663,111 669,116 683,126C692,132 698,143 702,163C704,175 704,176 704,202C703,230 702,235 700,236L698,236L697,233C696,231 695,225 695,219C693,194 692,188 691,185L690,183L689,184C688,184 688,186 688,189C688,192 688,196 687,197L684,199L681,201C680,201 680,204 680,205C680,207 679,210 678,212C676,214 675,217 675,218C675,220 674,222 674,224C672,229 670,236 670,240C670,242 669,245 668,248C665,252 665,254 665,268C665,277 665,288 665,294C666,306 666,307 661,305C658,303 642,298 634,296C621,292 589,291 571,293C541,298 530,302 525,310C523,314 519,330 517,344C516,348 514,358 513,365C510,378 508,395 509,401C510,402 513,405 516,407C519,410 524,413 527,415C529,417 534,419 536,420C545,422 551,428 551,434L551,437L547,438C545,438 540,440 536,441C532,441 520,444 510,447C483,453 476,453 462,444C450,438 441,433 438,433L436,433L436,436C436,442 443,449 455,454C470,461 472,462 477,467C480,470 482,472 483,472C485,472 503,468 507,466C510,466 517,464 523,464C538,463 552,460 556,458C561,456 562,453 563,443C563,434 563,433 560,426C556,418 554,408 551,385C549,370 549,355 550,352C551,352 555,350 561,349C569,348 572,348 581,349C595,351 610,351 618,349C623,348 624,348 628,350C634,352 644,359 646,361C647,362 651,363 671,365C677,366 684,367 686,368C690,369 691,373 692,388C692,400 692,403 691,405C689,409 682,413 673,418C666,421 663,425 661,430C660,432 658,437 656,442C654,446 652,450 652,450C652,451 650,455 648,459C642,471 641,478 641,491C642,497 642,510 643,521C643,539 643,540 640,547C639,551 637,558 635,562C632,572 632,572 629,572C628,572 626,573 624,574C619,577 615,577 603,576C594,576 593,576 591,577C591,578 590,579 590,579C590,580 589,582 587,585C585,587 582,593 581,597C578,604 573,612 570,616C568,617 567,618 563,618C558,618 554,619 542,622C532,625 516,632 516,634L516,635L518,635C522,635 545,630 551,629C554,628 557,626 559,625C561,623 563,622 563,622L564,622L564,624C565,626 564,638 562,643C562,646 551,657 546,659C524,670 498,675 470,672ZM509,585C525,583 530,581 540,575C544,573 553,565 553,563L553,562L548,562C544,561 540,562 537,563C528,565 508,567 496,567C475,567 448,562 441,557C440,556 438,555 437,555L436,555L436,556C436,557 441,564 444,568C448,572 466,581 475,584C484,587 497,588 509,585ZM518,537C525,536 529,536 541,537C566,539 568,539 578,537C583,537 588,535 589,535C592,534 591,531 588,526C586,523 585,522 583,522C578,522 543,516 534,514C519,511 510,509 498,509C491,508 469,510 469,510C468,511 434,509 416,508C408,507 401,506 401,506L401,507L404,511C407,514 410,516 414,518C417,519 421,522 424,523C426,525 430,526 434,527C437,528 443,529 447,531C451,532 461,534 468,536C475,537 482,538 482,539C483,540 507,538 518,537ZM387,488C389,485 393,480 396,476C398,472 403,466 406,461C414,448 420,439 427,432C431,428 435,424 436,422L438,419L437,419C436,418 425,423 415,430C405,437 391,452 386,461C383,467 383,469 382,479C381,486 381,492 381,493L382,494L383,494C383,494 385,491 387,488ZM433,341C437,340 445,339 450,338C455,337 461,336 462,335C464,334 465,334 467,335L469,336L469,334C470,333 464,325 462,325C461,325 458,324 454,322C447,319 438,316 426,315C416,315 405,317 395,321C392,323 388,324 388,324C386,324 372,335 371,338L370,339L372,340C373,340 378,340 382,340C388,339 390,339 392,340C393,341 395,342 398,342C404,343 425,342 433,341ZM470,314C470,309 469,298 467,292C466,289 464,288 452,286C434,282 417,283 389,286C373,289 369,290 365,293C355,303 362,307 383,304C403,300 425,302 454,310C457,311 459,312 460,313L462,314L463,314L463,315C463,317 467,320 468,320L470,319L470,314ZM725,498C724,497 723,496 723,494C723,489 729,466 731,460C733,457 734,453 735,451L735,447L733,447L731,446L731,440C731,437 731,434 732,433L733,432L734,432L735,433L736,427C736,424 737,421 738,419C738,418 739,415 739,412C741,404 742,397 744,394C746,389 758,377 760,377C763,377 764,380 766,392C768,407 768,414 766,428C764,440 762,447 758,452C756,455 755,457 755,457L755,458L756,457C757,456 759,456 759,457L761,457L761,462C760,470 752,487 748,491C742,497 729,501 725,498ZM727,396C725,392 727,376 730,370C733,364 734,363 744,356C748,354 753,350 755,349C759,346 766,345 772,347L775,349L775,353L771,354C768,354 765,357 754,368C747,376 738,385 736,389C733,394 730,397 729,397L728,398L727,396ZM576,346C569,346 566,344 567,342C568,339 579,334 582,334L586,334L586,346L584,347C583,347 580,346 576,346ZM548,344C548,343 550,340 552,337C553,334 555,331 555,331L555,330L554,329L552,329L552,327C552,324 559,319 567,316C582,311 620,308 633,312C639,313 645,316 649,319C652,321 652,322 652,326C652,329 652,331 651,332L650,335C651,337 650,338 650,339L648,340L643,337C636,331 633,330 622,328C604,324 591,325 571,332C562,335 559,336 554,341C551,343 549,345 549,345L548,345L548,344ZM627,342C626,341 626,339 626,338L627,337L632,337L632,341L630,342L628,343L627,342ZM493,534C477,533 456,528 456,525L456,524L458,523C461,522 467,523 486,525C490,526 498,526 503,526C511,526 513,527 515,528C517,531 518,532 515,533C513,534 500,535 493,534ZM397,337C396,336 394,335 394,334C394,333 400,327 402,327L404,327L405,329C405,330 405,333 405,335L406,338L403,338C401,338 398,337 397,337ZM440,334C439,334 439,332 439,330L439,327L440,327C441,326 443,327 445,327C448,328 449,329 449,331L449,334L446,334C442,335 440,335 440,334Z" style="fill:white;fill-rule:nonzero;"/>
            </g>
        </g>
    </g>
</svg>
